<svg xmlns="http://www.w3.org/2000/svg" viewBox="0 0 32 32"><title>81-Phone Call-Arrow up</title><g id="_81-Phone_Call-Arrow_up" data-name="81-Phone Call-Arrow up"><path d="M23.13,16.44a1,1,0,0,0-1.41,0L18.18,20l-5.66-5.66,3.54-3.54a1,1,0,0,0,0-1.41L9,2.3a1,1,0,0,0-1.41,0l-5,5a4.82,4.82,0,0,0,0,7.07L18.18,29.87a4.84,4.84,0,0,0,3.44,1.55,4.63,4.63,0,0,0,1.47-.25,5.91,5.91,0,0,0,2.16-1.3l4.95-4.95a1,1,0,0,0,0-1.41Zm.71,12a2.85,2.85,0,0,1-4.25,0l-7.78-7.78L4,12.9A2.85,2.85,0,0,1,4,8.66L8.28,4.42l5.66,5.66L11.11,12.9a2,2,0,0,0,0,2.83l5.66,5.66a2,2,0,0,0,2.83,0l2.83-2.83,5.66,5.66Z"/><path d="M31,0H25V2h3.59l-8.29,8.29,1.41,1.41L30,3.41V7h2V1A1,1,0,0,0,31,0Z"/></g></svg>